<mxfile host="65bd71144e">
    <diagram id="aPXXS6MrbP0DmQ0x4cv_" name="Home">
        <mxGraphModel dx="650" dy="478" grid="1" gridSize="10" guides="1" tooltips="1" connect="1" arrows="1" fold="1" page="1" pageScale="1" pageWidth="850" pageHeight="1100" math="0" shadow="0">
            <root>
                <mxCell id="0"/>
                <mxCell id="1" parent="0"/>
                <mxCell id="64" value="&lt;font style=&quot;font-size: 36px&quot;&gt;Logo&lt;/font&gt;" style="ellipse;whiteSpace=wrap;html=1;fontFamily=Helvetica;fontSize=12;shadow=0;fontColor=#000000;" parent="1" vertex="1">
                    <mxGeometry x="40" y="40" width="120" height="80" as="geometry"/>
                </mxCell>
                <mxCell id="98" value="" style="strokeWidth=1;shadow=0;dashed=0;align=center;html=1;shape=mxgraph.mockup.rrect;rSize=10;fontFamily=Helvetica;fontSize=36;fontColor=#DBDBDB;" parent="1" vertex="1">
                    <mxGeometry x="200" y="55" width="500" height="50" as="geometry"/>
                </mxCell>
                <mxCell id="99" value="Phòng ban" style="strokeColor=inherit;fillColor=inherit;gradientColor=inherit;strokeWidth=1;shadow=0;dashed=0;align=center;html=1;shape=mxgraph.mockup.rrect;rSize=0;fontSize=17;fontColor=#666666;fontStyle=1;resizeHeight=1;fontFamily=Helvetica;" parent="98" vertex="1">
                    <mxGeometry width="125" height="50" relative="1" as="geometry">
                        <mxPoint x="125" as="offset"/>
                    </mxGeometry>
                </mxCell>
                <mxCell id="100" value="Bản lương" style="strokeColor=inherit;fillColor=inherit;gradientColor=inherit;strokeWidth=1;shadow=0;dashed=0;align=center;html=1;shape=mxgraph.mockup.rrect;rSize=0;fontSize=17;fontColor=#666666;fontStyle=1;resizeHeight=1;fontFamily=Helvetica;" parent="98" vertex="1">
                    <mxGeometry width="125" height="50" relative="1" as="geometry">
                        <mxPoint x="250" as="offset"/>
                    </mxGeometry>
                </mxCell>
                <mxCell id="101" value="Liên hệ" style="strokeColor=inherit;fillColor=inherit;gradientColor=inherit;strokeWidth=1;shadow=0;dashed=0;align=center;html=1;shape=mxgraph.mockup.rightButton;rSize=10;fontSize=17;fontColor=#666666;fontStyle=1;resizeHeight=1;fontFamily=Helvetica;" parent="98" vertex="1">
                    <mxGeometry x="1" width="125" height="50" relative="1" as="geometry">
                        <mxPoint x="-125" as="offset"/>
                    </mxGeometry>
                </mxCell>
                <mxCell id="102" value="&lt;font color=&quot;#808080&quot;&gt;Nhân viên&lt;/font&gt;" style="strokeWidth=1;shadow=0;dashed=0;align=center;html=1;shape=mxgraph.mockup.leftButton;rSize=10;fontSize=17;fontColor=#ffffff;fontStyle=1;fillColor=none;strokeColor=none;resizeHeight=1;fontFamily=Helvetica;" parent="98" vertex="1">
                    <mxGeometry width="125" height="50" relative="1" as="geometry"/>
                </mxCell>
                <mxCell id="105" value="First slide" style="html=1;shadow=0;dashed=0;strokeColor=none;strokeWidth=1;fillColor=#777777;fontColor=#555555;whiteSpace=wrap;align=center;verticalAlign=middle;fontStyle=0;fontSize=40;fontFamily=Helvetica;" parent="1" vertex="1">
                    <mxGeometry x="40" y="170" width="760" height="320" as="geometry"/>
                </mxCell>
                <mxCell id="106" value="" style="html=1;verticalLabelPosition=bottom;labelBackgroundColor=#ffffff;verticalAlign=top;shadow=0;dashed=0;strokeWidth=4;shape=mxgraph.ios7.misc.more;strokeColor=#a0a0a0;fontFamily=Helvetica;fontSize=36;fontColor=#808080;fillColor=none;gradientColor=#ffffff;" parent="105" vertex="1">
                    <mxGeometry x="1" y="0.5" width="7" height="14" relative="1" as="geometry">
                        <mxPoint x="-50" y="-7" as="offset"/>
                    </mxGeometry>
                </mxCell>
                <mxCell id="107" value="" style="flipH=1;html=1;verticalLabelPosition=bottom;labelBackgroundColor=#ffffff;verticalAlign=top;shadow=0;dashed=0;strokeWidth=4;shape=mxgraph.ios7.misc.more;strokeColor=#a0a0a0;fontFamily=Helvetica;fontSize=36;fontColor=#808080;fillColor=none;gradientColor=#ffffff;" parent="105" vertex="1">
                    <mxGeometry y="0.5" width="7" height="14" relative="1" as="geometry">
                        <mxPoint x="43" y="-7" as="offset"/>
                    </mxGeometry>
                </mxCell>
                <mxCell id="108" value="" style="html=1;shadow=0;strokeColor=none;fillColor=#ffffff;fontFamily=Helvetica;fontSize=36;fontColor=#808080;" parent="105" vertex="1">
                    <mxGeometry x="0.5" y="1" width="30" height="4" relative="1" as="geometry">
                        <mxPoint x="-50" y="-20" as="offset"/>
                    </mxGeometry>
                </mxCell>
                <mxCell id="109" value="" style="html=1;shadow=0;strokeColor=none;fillColor=#BBBBBB;fontFamily=Helvetica;fontSize=36;fontColor=#808080;" parent="105" vertex="1">
                    <mxGeometry x="0.5" y="1" width="30" height="4" relative="1" as="geometry">
                        <mxPoint x="-15" y="-20" as="offset"/>
                    </mxGeometry>
                </mxCell>
                <mxCell id="110" value="" style="html=1;shadow=0;strokeColor=none;fillColor=#BBBBBB;fontFamily=Helvetica;fontSize=36;fontColor=#808080;" parent="105" vertex="1">
                    <mxGeometry x="0.5" y="1" width="30" height="4" relative="1" as="geometry">
                        <mxPoint x="20" y="-20" as="offset"/>
                    </mxGeometry>
                </mxCell>
            </root>
        </mxGraphModel>
    </diagram>
    <diagram name="StaffList" id="cvx9K57bfv1oWwgsc9xW">
        <mxGraphModel dx="650" dy="478" grid="1" gridSize="10" guides="1" tooltips="1" connect="1" arrows="1" fold="1" page="1" pageScale="1" pageWidth="850" pageHeight="1100" math="0" shadow="0">
            <root>
                <mxCell id="2AHAN3FgLKmoDfBhMKL2-0"/>
                <mxCell id="2AHAN3FgLKmoDfBhMKL2-1" parent="2AHAN3FgLKmoDfBhMKL2-0"/>
                <mxCell id="2AHAN3FgLKmoDfBhMKL2-2" value="&lt;font style=&quot;font-size: 36px&quot;&gt;Logo&lt;/font&gt;" style="ellipse;whiteSpace=wrap;html=1;fontFamily=Helvetica;fontSize=12;shadow=0;fontColor=#000000;" parent="2AHAN3FgLKmoDfBhMKL2-1" vertex="1">
                    <mxGeometry x="40" y="40" width="120" height="80" as="geometry"/>
                </mxCell>
                <mxCell id="2AHAN3FgLKmoDfBhMKL2-3" value="" style="strokeWidth=1;shadow=0;dashed=0;align=center;html=1;shape=mxgraph.mockup.rrect;rSize=10;fontFamily=Helvetica;fontSize=40;fontColor=#DBDBDB;" parent="2AHAN3FgLKmoDfBhMKL2-1" vertex="1">
                    <mxGeometry x="200" y="55" width="500" height="50" as="geometry"/>
                </mxCell>
                <mxCell id="2AHAN3FgLKmoDfBhMKL2-4" value="Phòng ban" style="strokeColor=inherit;fillColor=inherit;gradientColor=inherit;strokeWidth=1;shadow=0;dashed=0;align=center;html=1;shape=mxgraph.mockup.rrect;rSize=0;fontSize=17;fontColor=#666666;fontStyle=1;resizeHeight=1;fontFamily=Helvetica;" parent="2AHAN3FgLKmoDfBhMKL2-3" vertex="1">
                    <mxGeometry width="125" height="50" relative="1" as="geometry">
                        <mxPoint x="125" as="offset"/>
                    </mxGeometry>
                </mxCell>
                <mxCell id="2AHAN3FgLKmoDfBhMKL2-5" value="Bản lương" style="strokeColor=inherit;fillColor=inherit;gradientColor=inherit;strokeWidth=1;shadow=0;dashed=0;align=center;html=1;shape=mxgraph.mockup.rrect;rSize=0;fontSize=17;fontColor=#666666;fontStyle=1;resizeHeight=1;fontFamily=Helvetica;" parent="2AHAN3FgLKmoDfBhMKL2-3" vertex="1">
                    <mxGeometry width="125" height="50" relative="1" as="geometry">
                        <mxPoint x="250" as="offset"/>
                    </mxGeometry>
                </mxCell>
                <mxCell id="2AHAN3FgLKmoDfBhMKL2-6" value="Liên hệ" style="strokeColor=inherit;fillColor=inherit;gradientColor=inherit;strokeWidth=1;shadow=0;dashed=0;align=center;html=1;shape=mxgraph.mockup.rightButton;rSize=10;fontSize=17;fontColor=#666666;fontStyle=1;resizeHeight=1;fontFamily=Helvetica;" parent="2AHAN3FgLKmoDfBhMKL2-3" vertex="1">
                    <mxGeometry x="1" width="125" height="50" relative="1" as="geometry">
                        <mxPoint x="-125" as="offset"/>
                    </mxGeometry>
                </mxCell>
                <mxCell id="2AHAN3FgLKmoDfBhMKL2-7" value="&lt;font style=&quot;font-size: 20px&quot; color=&quot;#000000&quot;&gt;Nhân viên&lt;/font&gt;" style="strokeWidth=1;shadow=0;dashed=0;align=center;html=1;shape=mxgraph.mockup.leftButton;rSize=10;fontSize=17;fontColor=#ffffff;fontStyle=1;fillColor=none;strokeColor=none;resizeHeight=1;fontFamily=Helvetica;" parent="2AHAN3FgLKmoDfBhMKL2-3" vertex="1">
                    <mxGeometry width="125" height="50" relative="1" as="geometry"/>
                </mxCell>
                <mxCell id="2AHAN3FgLKmoDfBhMKL2-8" value="&lt;div&gt;&lt;b&gt;&lt;font style=&quot;font-size: 20px&quot;&gt;Card title&lt;/font&gt;&lt;/b&gt;&lt;/div&gt;" style="html=1;shadow=0;dashed=0;shape=mxgraph.bootstrap.rrect;rSize=5;strokeColor=#DFDFDF;html=1;whiteSpace=wrap;fillColor=#ffffff;fontColor=#000000;verticalAlign=top;align=center;spacing=20;spacingBottom=0;fontSize=14;spacingTop=160;fontFamily=Helvetica;" parent="2AHAN3FgLKmoDfBhMKL2-1" vertex="1">
                    <mxGeometry x="40" y="320" width="240" height="230" as="geometry"/>
                </mxCell>
                <mxCell id="2AHAN3FgLKmoDfBhMKL2-9" value="Image cap" style="html=1;shadow=0;dashed=0;shape=mxgraph.bootstrap.topButton;rSize=5;perimeter=none;whiteSpace=wrap;fillColor=#868E96;strokeColor=#DFDFDF;fontColor=#DEE2E6;resizeWidth=1;fontSize=18;fontFamily=Helvetica;" parent="2AHAN3FgLKmoDfBhMKL2-8" vertex="1">
                    <mxGeometry width="240" height="170" relative="1" as="geometry"/>
                </mxCell>
                <mxCell id="2AHAN3FgLKmoDfBhMKL2-10" value="Home" style="strokeWidth=1;shadow=0;dashed=0;align=center;html=1;shape=mxgraph.mockup.navigation.anchor;fontSize=17;fontColor=#666666;fontStyle=1;fontFamily=Helvetica;fillColor=none;gradientColor=#ffffff;" parent="2AHAN3FgLKmoDfBhMKL2-1" vertex="1">
                    <mxGeometry x="40" y="140" width="60" height="30" as="geometry"/>
                </mxCell>
                <mxCell id="2AHAN3FgLKmoDfBhMKL2-12" value="&gt;" style="strokeWidth=1;shadow=0;dashed=0;align=center;html=1;shape=mxgraph.mockup.navigation.anchor;fontSize=24;fontColor=#aaaaaa;fontStyle=1;fontFamily=Helvetica;fillColor=none;gradientColor=#ffffff;" parent="2AHAN3FgLKmoDfBhMKL2-1" vertex="1">
                    <mxGeometry x="110" y="140" width="20" height="30" as="geometry"/>
                </mxCell>
                <mxCell id="2AHAN3FgLKmoDfBhMKL2-13" value="Nhân viên" style="strokeWidth=1;shadow=0;dashed=0;align=center;html=1;shape=mxgraph.mockup.navigation.anchor;fontSize=17;fontColor=#000000;fontStyle=1;fontFamily=Helvetica;fillColor=none;gradientColor=#ffffff;" parent="2AHAN3FgLKmoDfBhMKL2-1" vertex="1">
                    <mxGeometry x="150" y="140" width="60" height="30" as="geometry"/>
                </mxCell>
                <mxCell id="2AHAN3FgLKmoDfBhMKL2-15" value="&lt;div&gt;&lt;b&gt;&lt;font style=&quot;font-size: 20px&quot;&gt;Card title&lt;/font&gt;&lt;/b&gt;&lt;/div&gt;" style="html=1;shadow=0;dashed=0;shape=mxgraph.bootstrap.rrect;rSize=5;strokeColor=#DFDFDF;html=1;whiteSpace=wrap;fillColor=#ffffff;fontColor=#000000;verticalAlign=top;align=center;spacing=20;spacingBottom=0;fontSize=14;spacingTop=160;fontFamily=Helvetica;" parent="2AHAN3FgLKmoDfBhMKL2-1" vertex="1">
                    <mxGeometry x="600" y="320" width="240" height="230" as="geometry"/>
                </mxCell>
                <mxCell id="2AHAN3FgLKmoDfBhMKL2-16" value="Image cap" style="html=1;shadow=0;dashed=0;shape=mxgraph.bootstrap.topButton;rSize=5;perimeter=none;whiteSpace=wrap;fillColor=#868E96;strokeColor=#DFDFDF;fontColor=#DEE2E6;resizeWidth=1;fontSize=18;fontFamily=Helvetica;" parent="2AHAN3FgLKmoDfBhMKL2-15" vertex="1">
                    <mxGeometry width="240" height="170" relative="1" as="geometry"/>
                </mxCell>
                <mxCell id="2AHAN3FgLKmoDfBhMKL2-17" value="&lt;div&gt;&lt;b&gt;&lt;font style=&quot;font-size: 20px&quot;&gt;Card title&lt;/font&gt;&lt;/b&gt;&lt;/div&gt;" style="html=1;shadow=0;dashed=0;shape=mxgraph.bootstrap.rrect;rSize=5;strokeColor=#DFDFDF;html=1;whiteSpace=wrap;fillColor=#ffffff;fontColor=#000000;verticalAlign=top;align=center;spacing=20;spacingBottom=0;fontSize=14;spacingTop=160;fontFamily=Helvetica;" parent="2AHAN3FgLKmoDfBhMKL2-1" vertex="1">
                    <mxGeometry x="320" y="320" width="240" height="230" as="geometry"/>
                </mxCell>
                <mxCell id="2AHAN3FgLKmoDfBhMKL2-18" value="Image cap" style="html=1;shadow=0;dashed=0;shape=mxgraph.bootstrap.topButton;rSize=5;perimeter=none;whiteSpace=wrap;fillColor=#868E96;strokeColor=#DFDFDF;fontColor=#DEE2E6;resizeWidth=1;fontSize=18;fontFamily=Helvetica;" parent="2AHAN3FgLKmoDfBhMKL2-17" vertex="1">
                    <mxGeometry width="240" height="170" relative="1" as="geometry"/>
                </mxCell>
                <mxCell id="2AHAN3FgLKmoDfBhMKL2-19" value="&lt;div&gt;&lt;b&gt;&lt;font style=&quot;font-size: 20px&quot;&gt;Card title&lt;/font&gt;&lt;/b&gt;&lt;/div&gt;" style="html=1;shadow=0;dashed=0;shape=mxgraph.bootstrap.rrect;rSize=5;strokeColor=#DFDFDF;html=1;whiteSpace=wrap;fillColor=#ffffff;fontColor=#000000;verticalAlign=top;align=center;spacing=20;spacingBottom=0;fontSize=14;spacingTop=160;fontFamily=Helvetica;" parent="2AHAN3FgLKmoDfBhMKL2-1" vertex="1">
                    <mxGeometry x="880" y="320" width="240" height="230" as="geometry"/>
                </mxCell>
                <mxCell id="2AHAN3FgLKmoDfBhMKL2-20" value="Image cap" style="html=1;shadow=0;dashed=0;shape=mxgraph.bootstrap.topButton;rSize=5;perimeter=none;whiteSpace=wrap;fillColor=#868E96;strokeColor=#DFDFDF;fontColor=#DEE2E6;resizeWidth=1;fontSize=18;fontFamily=Helvetica;" parent="2AHAN3FgLKmoDfBhMKL2-19" vertex="1">
                    <mxGeometry width="240" height="170" relative="1" as="geometry"/>
                </mxCell>
                <mxCell id="2AHAN3FgLKmoDfBhMKL2-21" value="&lt;div&gt;&lt;b&gt;&lt;font style=&quot;font-size: 20px&quot;&gt;Card title&lt;/font&gt;&lt;/b&gt;&lt;/div&gt;" style="html=1;shadow=0;dashed=0;shape=mxgraph.bootstrap.rrect;rSize=5;strokeColor=#DFDFDF;html=1;whiteSpace=wrap;fillColor=#ffffff;fontColor=#000000;verticalAlign=top;align=center;spacing=20;spacingBottom=0;fontSize=14;spacingTop=160;fontFamily=Helvetica;" parent="2AHAN3FgLKmoDfBhMKL2-1" vertex="1">
                    <mxGeometry x="1160" y="320" width="240" height="230" as="geometry"/>
                </mxCell>
                <mxCell id="2AHAN3FgLKmoDfBhMKL2-22" value="Image cap" style="html=1;shadow=0;dashed=0;shape=mxgraph.bootstrap.topButton;rSize=5;perimeter=none;whiteSpace=wrap;fillColor=#868E96;strokeColor=#DFDFDF;fontColor=#DEE2E6;resizeWidth=1;fontSize=18;fontFamily=Helvetica;" parent="2AHAN3FgLKmoDfBhMKL2-21" vertex="1">
                    <mxGeometry width="240" height="170" relative="1" as="geometry"/>
                </mxCell>
                <mxCell id="2AHAN3FgLKmoDfBhMKL2-23" value="&lt;div&gt;&lt;b&gt;&lt;font style=&quot;font-size: 20px&quot;&gt;Card title&lt;/font&gt;&lt;/b&gt;&lt;/div&gt;" style="html=1;shadow=0;dashed=0;shape=mxgraph.bootstrap.rrect;rSize=5;strokeColor=#DFDFDF;html=1;whiteSpace=wrap;fillColor=#ffffff;fontColor=#000000;verticalAlign=top;align=center;spacing=20;spacingBottom=0;fontSize=14;spacingTop=160;fontFamily=Helvetica;" parent="2AHAN3FgLKmoDfBhMKL2-1" vertex="1">
                    <mxGeometry x="1440" y="320" width="240" height="230" as="geometry"/>
                </mxCell>
                <mxCell id="2AHAN3FgLKmoDfBhMKL2-24" value="Image cap" style="html=1;shadow=0;dashed=0;shape=mxgraph.bootstrap.topButton;rSize=5;perimeter=none;whiteSpace=wrap;fillColor=#868E96;strokeColor=#DFDFDF;fontColor=#DEE2E6;resizeWidth=1;fontSize=18;fontFamily=Helvetica;" parent="2AHAN3FgLKmoDfBhMKL2-23" vertex="1">
                    <mxGeometry width="240" height="170" relative="1" as="geometry"/>
                </mxCell>
                <mxCell id="2AHAN3FgLKmoDfBhMKL2-25" value="&lt;div&gt;&lt;b&gt;&lt;font style=&quot;font-size: 20px&quot;&gt;Card title&lt;/font&gt;&lt;/b&gt;&lt;/div&gt;" style="html=1;shadow=0;dashed=0;shape=mxgraph.bootstrap.rrect;rSize=5;strokeColor=#DFDFDF;html=1;whiteSpace=wrap;fillColor=#ffffff;fontColor=#000000;verticalAlign=top;align=center;spacing=20;spacingBottom=0;fontSize=14;spacingTop=160;fontFamily=Helvetica;" parent="2AHAN3FgLKmoDfBhMKL2-1" vertex="1">
                    <mxGeometry x="40" y="600" width="240" height="230" as="geometry"/>
                </mxCell>
                <mxCell id="2AHAN3FgLKmoDfBhMKL2-26" value="Image cap" style="html=1;shadow=0;dashed=0;shape=mxgraph.bootstrap.topButton;rSize=5;perimeter=none;whiteSpace=wrap;fillColor=#868E96;strokeColor=#DFDFDF;fontColor=#DEE2E6;resizeWidth=1;fontSize=18;fontFamily=Helvetica;" parent="2AHAN3FgLKmoDfBhMKL2-25" vertex="1">
                    <mxGeometry width="240" height="170" relative="1" as="geometry"/>
                </mxCell>
                <mxCell id="2AHAN3FgLKmoDfBhMKL2-27" value="&lt;div&gt;&lt;b&gt;&lt;font style=&quot;font-size: 20px&quot;&gt;Card title&lt;/font&gt;&lt;/b&gt;&lt;/div&gt;" style="html=1;shadow=0;dashed=0;shape=mxgraph.bootstrap.rrect;rSize=5;strokeColor=#DFDFDF;html=1;whiteSpace=wrap;fillColor=#ffffff;fontColor=#000000;verticalAlign=top;align=center;spacing=20;spacingBottom=0;fontSize=14;spacingTop=160;fontFamily=Helvetica;" parent="2AHAN3FgLKmoDfBhMKL2-1" vertex="1">
                    <mxGeometry x="320" y="610" width="240" height="230" as="geometry"/>
                </mxCell>
                <mxCell id="2AHAN3FgLKmoDfBhMKL2-28" value="Image cap" style="html=1;shadow=0;dashed=0;shape=mxgraph.bootstrap.topButton;rSize=5;perimeter=none;whiteSpace=wrap;fillColor=#868E96;strokeColor=#DFDFDF;fontColor=#DEE2E6;resizeWidth=1;fontSize=18;fontFamily=Helvetica;" parent="2AHAN3FgLKmoDfBhMKL2-27" vertex="1">
                    <mxGeometry width="240" height="170" relative="1" as="geometry"/>
                </mxCell>
                <mxCell id="2AHAN3FgLKmoDfBhMKL2-31" value="" style="line;strokeWidth=1;html=1;shadow=0;fontFamily=Helvetica;fontSize=24;fontColor=#999999;fillColor=none;gradientColor=#ffffff;labelBackgroundColor=#FFFFFF;" parent="2AHAN3FgLKmoDfBhMKL2-1" vertex="1">
                    <mxGeometry x="40" y="240" width="800" height="10" as="geometry"/>
                </mxCell>
                <mxCell id="2AHAN3FgLKmoDfBhMKL2-32" value="Nhân viên" style="text;html=1;align=center;verticalAlign=middle;resizable=0;points=[];autosize=1;strokeColor=none;fillColor=none;fontSize=30;fontFamily=Helvetica;fontColor=#000000;fontStyle=1" parent="2AHAN3FgLKmoDfBhMKL2-1" vertex="1">
                    <mxGeometry x="30" y="195" width="160" height="40" as="geometry"/>
                </mxCell>
            </root>
        </mxGraphModel>
    </diagram>
    <diagram name="StaffDetail" id="m9LsAVtjJTnF7EXs2Mxn">
        <mxGraphModel dx="650" dy="478" grid="1" gridSize="10" guides="1" tooltips="1" connect="1" arrows="1" fold="1" page="1" pageScale="1" pageWidth="850" pageHeight="1100" math="0" shadow="0">
            <root>
                <mxCell id="9u6XVsT8SDDpKAcF1L7A-0"/>
                <mxCell id="9u6XVsT8SDDpKAcF1L7A-1" parent="9u6XVsT8SDDpKAcF1L7A-0"/>
                <mxCell id="9u6XVsT8SDDpKAcF1L7A-2" value="&lt;font style=&quot;font-size: 36px&quot;&gt;Logo&lt;/font&gt;" style="ellipse;whiteSpace=wrap;html=1;fontFamily=Helvetica;fontSize=12;shadow=0;fontColor=#000000;" parent="9u6XVsT8SDDpKAcF1L7A-1" vertex="1">
                    <mxGeometry x="40" y="40" width="120" height="80" as="geometry"/>
                </mxCell>
                <mxCell id="9u6XVsT8SDDpKAcF1L7A-3" value="" style="strokeWidth=1;shadow=0;dashed=0;align=center;html=1;shape=mxgraph.mockup.rrect;rSize=10;fontFamily=Helvetica;fontSize=40;fontColor=#DBDBDB;" parent="9u6XVsT8SDDpKAcF1L7A-1" vertex="1">
                    <mxGeometry x="200" y="55" width="500" height="50" as="geometry"/>
                </mxCell>
                <mxCell id="9u6XVsT8SDDpKAcF1L7A-4" value="Phòng ban" style="strokeColor=inherit;fillColor=inherit;gradientColor=inherit;strokeWidth=1;shadow=0;dashed=0;align=center;html=1;shape=mxgraph.mockup.rrect;rSize=0;fontSize=17;fontColor=#666666;fontStyle=1;resizeHeight=1;fontFamily=Helvetica;" parent="9u6XVsT8SDDpKAcF1L7A-3" vertex="1">
                    <mxGeometry width="125" height="50" relative="1" as="geometry">
                        <mxPoint x="125" as="offset"/>
                    </mxGeometry>
                </mxCell>
                <mxCell id="9u6XVsT8SDDpKAcF1L7A-5" value="Bản lương" style="strokeColor=inherit;fillColor=inherit;gradientColor=inherit;strokeWidth=1;shadow=0;dashed=0;align=center;html=1;shape=mxgraph.mockup.rrect;rSize=0;fontSize=17;fontColor=#666666;fontStyle=1;resizeHeight=1;fontFamily=Helvetica;" parent="9u6XVsT8SDDpKAcF1L7A-3" vertex="1">
                    <mxGeometry width="125" height="50" relative="1" as="geometry">
                        <mxPoint x="250" as="offset"/>
                    </mxGeometry>
                </mxCell>
                <mxCell id="9u6XVsT8SDDpKAcF1L7A-6" value="Liên hệ" style="strokeColor=inherit;fillColor=inherit;gradientColor=inherit;strokeWidth=1;shadow=0;dashed=0;align=center;html=1;shape=mxgraph.mockup.rightButton;rSize=10;fontSize=17;fontColor=#666666;fontStyle=1;resizeHeight=1;fontFamily=Helvetica;" parent="9u6XVsT8SDDpKAcF1L7A-3" vertex="1">
                    <mxGeometry x="1" width="125" height="50" relative="1" as="geometry">
                        <mxPoint x="-125" as="offset"/>
                    </mxGeometry>
                </mxCell>
                <mxCell id="9u6XVsT8SDDpKAcF1L7A-7" value="&lt;font style=&quot;font-size: 20px&quot; color=&quot;#000000&quot;&gt;Nhân viên&lt;/font&gt;" style="strokeWidth=1;shadow=0;dashed=0;align=center;html=1;shape=mxgraph.mockup.leftButton;rSize=10;fontSize=17;fontColor=#ffffff;fontStyle=1;fillColor=none;strokeColor=none;resizeHeight=1;fontFamily=Helvetica;" parent="9u6XVsT8SDDpKAcF1L7A-3" vertex="1">
                    <mxGeometry width="125" height="50" relative="1" as="geometry"/>
                </mxCell>
                <mxCell id="9u6XVsT8SDDpKAcF1L7A-10" value="Nhân viên" style="strokeWidth=1;shadow=0;dashed=0;align=center;html=1;shape=mxgraph.mockup.navigation.anchor;fontSize=17;fontColor=#666666;fontStyle=1;fontFamily=Helvetica;fillColor=none;gradientColor=#ffffff;" parent="9u6XVsT8SDDpKAcF1L7A-1" vertex="1">
                    <mxGeometry x="40" y="140" width="90" height="30" as="geometry"/>
                </mxCell>
                <mxCell id="9u6XVsT8SDDpKAcF1L7A-12" value="&gt;" style="strokeWidth=1;shadow=0;dashed=0;align=center;html=1;shape=mxgraph.mockup.navigation.anchor;fontSize=24;fontColor=#aaaaaa;fontStyle=1;fontFamily=Helvetica;fillColor=none;gradientColor=#ffffff;" parent="9u6XVsT8SDDpKAcF1L7A-1" vertex="1">
                    <mxGeometry x="130" y="140" width="20" height="30" as="geometry"/>
                </mxCell>
                <mxCell id="9u6XVsT8SDDpKAcF1L7A-13" value="Nguyễn Văn A" style="strokeWidth=1;shadow=0;dashed=0;align=center;html=1;shape=mxgraph.mockup.navigation.anchor;fontSize=17;fontColor=#000000;fontStyle=1;fontFamily=Helvetica;fillColor=none;gradientColor=#ffffff;" parent="9u6XVsT8SDDpKAcF1L7A-1" vertex="1">
                    <mxGeometry x="190" y="140" width="60" height="30" as="geometry"/>
                </mxCell>
                <mxCell id="9u6XVsT8SDDpKAcF1L7A-29" value="" style="line;strokeWidth=1;html=1;shadow=0;fontFamily=Helvetica;fontSize=24;fontColor=#000000;fillColor=none;gradientColor=#ffffff;labelBackgroundColor=#FFFFFF;" parent="9u6XVsT8SDDpKAcF1L7A-1" vertex="1">
                    <mxGeometry x="40" y="240" width="800" height="10" as="geometry"/>
                </mxCell>
                <mxCell id="9u6XVsT8SDDpKAcF1L7A-30" value="Nguyễn Văn A" style="text;html=1;align=center;verticalAlign=middle;resizable=0;points=[];autosize=1;strokeColor=none;fillColor=none;fontSize=30;fontFamily=Helvetica;fontColor=#000000;fontStyle=1" parent="9u6XVsT8SDDpKAcF1L7A-1" vertex="1">
                    <mxGeometry x="50" y="200" width="220" height="40" as="geometry"/>
                </mxCell>
                <mxCell id="1M6A-44r_VwOQfWHSUZg-2" value="" style="verticalLabelPosition=bottom;shadow=0;dashed=0;align=center;html=1;verticalAlign=top;strokeWidth=1;shape=mxgraph.mockup.containers.userMale;strokeColor=#666666;strokeColor2=#008cff;" parent="9u6XVsT8SDDpKAcF1L7A-1" vertex="1">
                    <mxGeometry x="40" y="280" width="200" height="240" as="geometry"/>
                </mxCell>
                <mxCell id="1M6A-44r_VwOQfWHSUZg-5" value="&lt;div style=&quot;text-align: justify&quot;&gt;&lt;ul&gt;&lt;li&gt;&lt;b&gt;&lt;font style=&quot;font-size: 20px&quot;&gt;Card title&lt;/font&gt;&lt;/b&gt;&lt;/li&gt;&lt;li&gt;Value 1&lt;/li&gt;&lt;li&gt;Value 2&lt;/li&gt;&lt;li&gt;Value 3&lt;/li&gt;&lt;li&gt;Value 4&lt;/li&gt;&lt;/ul&gt;&lt;/div&gt;" style="html=1;shadow=0;dashed=0;shape=mxgraph.bootstrap.rrect;rSize=5;strokeColor=#5B646A;html=1;whiteSpace=wrap;fillColor=#6C767D;fontColor=#000000;verticalAlign=bottom;align=left;spacing=20;spacingBottom=0;fontSize=14;" parent="9u6XVsT8SDDpKAcF1L7A-1" vertex="1">
                    <mxGeometry x="280" y="280" width="440" height="240" as="geometry"/>
                </mxCell>
            </root>
        </mxGraphModel>
    </diagram>
    <diagram name="Department" id="E5JB5nWHVjp7jbad7m-9">
        <mxGraphModel dx="650" dy="478" grid="1" gridSize="10" guides="1" tooltips="1" connect="1" arrows="1" fold="1" page="1" pageScale="1" pageWidth="850" pageHeight="1100" math="0" shadow="0">
            <root>
                <mxCell id="fnx2uI6Z220pYHR9tcVY-0"/>
                <mxCell id="fnx2uI6Z220pYHR9tcVY-1" parent="fnx2uI6Z220pYHR9tcVY-0"/>
                <mxCell id="fnx2uI6Z220pYHR9tcVY-2" value="&lt;font style=&quot;font-size: 36px&quot; color=&quot;#000000&quot;&gt;Logo&lt;/font&gt;" style="ellipse;whiteSpace=wrap;html=1;fontFamily=Helvetica;fontSize=12;shadow=0;" parent="fnx2uI6Z220pYHR9tcVY-1" vertex="1">
                    <mxGeometry x="40" y="40" width="120" height="80" as="geometry"/>
                </mxCell>
                <mxCell id="fnx2uI6Z220pYHR9tcVY-3" value="" style="strokeWidth=1;shadow=0;dashed=0;align=center;html=1;shape=mxgraph.mockup.rrect;rSize=10;fontFamily=Helvetica;fontSize=40;fontColor=#DBDBDB;strokeColor=#999999;" parent="fnx2uI6Z220pYHR9tcVY-1" vertex="1">
                    <mxGeometry x="200" y="55" width="500" height="50" as="geometry"/>
                </mxCell>
                <mxCell id="fnx2uI6Z220pYHR9tcVY-4" value="&lt;font style=&quot;font-size: 20px&quot; color=&quot;#000000&quot;&gt;Phòng ban&lt;/font&gt;" style="strokeColor=inherit;fillColor=inherit;gradientColor=inherit;strokeWidth=1;shadow=0;dashed=0;align=center;html=1;shape=mxgraph.mockup.rrect;rSize=0;fontSize=17;fontColor=#666666;fontStyle=1;resizeHeight=1;fontFamily=Helvetica;" parent="fnx2uI6Z220pYHR9tcVY-3" vertex="1">
                    <mxGeometry width="125" height="50" relative="1" as="geometry">
                        <mxPoint x="125" as="offset"/>
                    </mxGeometry>
                </mxCell>
                <mxCell id="fnx2uI6Z220pYHR9tcVY-5" value="Bản lương" style="strokeColor=inherit;fillColor=inherit;gradientColor=inherit;strokeWidth=1;shadow=0;dashed=0;align=center;html=1;shape=mxgraph.mockup.rrect;rSize=0;fontSize=17;fontColor=#666666;fontStyle=1;resizeHeight=1;fontFamily=Helvetica;" parent="fnx2uI6Z220pYHR9tcVY-3" vertex="1">
                    <mxGeometry width="125" height="50" relative="1" as="geometry">
                        <mxPoint x="250" as="offset"/>
                    </mxGeometry>
                </mxCell>
                <mxCell id="fnx2uI6Z220pYHR9tcVY-6" value="Liên hệ" style="strokeColor=inherit;fillColor=inherit;gradientColor=inherit;strokeWidth=1;shadow=0;dashed=0;align=center;html=1;shape=mxgraph.mockup.rightButton;rSize=10;fontSize=17;fontColor=#666666;fontStyle=1;resizeHeight=1;fontFamily=Helvetica;" parent="fnx2uI6Z220pYHR9tcVY-3" vertex="1">
                    <mxGeometry x="1" width="125" height="50" relative="1" as="geometry">
                        <mxPoint x="-125" as="offset"/>
                    </mxGeometry>
                </mxCell>
                <mxCell id="fnx2uI6Z220pYHR9tcVY-7" value="&lt;font style=&quot;font-weight: normal ; font-size: 18px&quot; color=&quot;#b3b3b3&quot;&gt;Nhân viên&lt;/font&gt;" style="strokeWidth=1;shadow=0;dashed=0;align=center;html=1;shape=mxgraph.mockup.leftButton;rSize=10;fontSize=17;fontColor=#ffffff;fontStyle=1;fillColor=none;strokeColor=none;resizeHeight=1;fontFamily=Helvetica;" parent="fnx2uI6Z220pYHR9tcVY-3" vertex="1">
                    <mxGeometry width="125" height="50" relative="1" as="geometry"/>
                </mxCell>
                <mxCell id="fnx2uI6Z220pYHR9tcVY-10" value="Home" style="strokeWidth=1;shadow=0;dashed=0;align=center;html=1;shape=mxgraph.mockup.navigation.anchor;fontSize=17;fontColor=#666666;fontStyle=1;fontFamily=Helvetica;fillColor=none;gradientColor=#ffffff;" parent="fnx2uI6Z220pYHR9tcVY-1" vertex="1">
                    <mxGeometry x="40" y="140" width="60" height="30" as="geometry"/>
                </mxCell>
                <mxCell id="fnx2uI6Z220pYHR9tcVY-11" style="edgeStyle=none;html=1;fontFamily=Helvetica;fontSize=20;fontColor=#FFFFFF;startArrow=none;" parent="fnx2uI6Z220pYHR9tcVY-1" source="fnx2uI6Z220pYHR9tcVY-13" edge="1">
                    <mxGeometry relative="1" as="geometry">
                        <mxPoint x="210" y="154.9999999999999" as="targetPoint"/>
                    </mxGeometry>
                </mxCell>
                <mxCell id="fnx2uI6Z220pYHR9tcVY-12" value="&gt;" style="strokeWidth=1;shadow=0;dashed=0;align=center;html=1;shape=mxgraph.mockup.navigation.anchor;fontSize=24;fontColor=#aaaaaa;fontStyle=1;fontFamily=Helvetica;fillColor=none;gradientColor=#ffffff;" parent="fnx2uI6Z220pYHR9tcVY-1" vertex="1">
                    <mxGeometry x="110" y="140" width="20" height="30" as="geometry"/>
                </mxCell>
                <mxCell id="fnx2uI6Z220pYHR9tcVY-13" value="&lt;font color=&quot;#000000&quot;&gt;Phòng ban&lt;/font&gt;" style="strokeWidth=1;shadow=0;dashed=0;align=center;html=1;shape=mxgraph.mockup.navigation.anchor;fontSize=17;fontColor=#FFFFFF;fontStyle=1;fontFamily=Helvetica;fillColor=none;gradientColor=#ffffff;" parent="fnx2uI6Z220pYHR9tcVY-1" vertex="1">
                    <mxGeometry x="160" y="140" width="60" height="30" as="geometry"/>
                </mxCell>
                <mxCell id="fnx2uI6Z220pYHR9tcVY-29" value="" style="line;strokeWidth=1;html=1;shadow=0;fontFamily=Helvetica;fontSize=24;fontColor=#E6E6E6;fillColor=none;gradientColor=#ffffff;labelBackgroundColor=#FFFFFF;" parent="fnx2uI6Z220pYHR9tcVY-1" vertex="1">
                    <mxGeometry x="40" y="240" width="800" height="10" as="geometry"/>
                </mxCell>
                <mxCell id="fnx2uI6Z220pYHR9tcVY-30" value="&lt;font color=&quot;#000000&quot;&gt;Phòng ban&lt;/font&gt;" style="text;html=1;align=center;verticalAlign=middle;resizable=0;points=[];autosize=1;strokeColor=none;fillColor=none;fontSize=30;fontFamily=Helvetica;fontColor=#E6E6E6;fontStyle=1" parent="fnx2uI6Z220pYHR9tcVY-1" vertex="1">
                    <mxGeometry x="70" y="190" width="170" height="40" as="geometry"/>
                </mxCell>
                <mxCell id="fnx2uI6Z220pYHR9tcVY-31" value="&amp;nbsp; &amp;nbsp; Card&amp;nbsp;&lt;br&gt;&lt;ul&gt;&lt;li&gt;Value 1&lt;/li&gt;&lt;/ul&gt;" style="rounded=0;whiteSpace=wrap;html=1;fontSize=20;fontColor=#666666;strokeColor=#999999;align=left;" parent="fnx2uI6Z220pYHR9tcVY-1" vertex="1">
                    <mxGeometry x="40" y="280" width="240" height="160" as="geometry"/>
                </mxCell>
                <mxCell id="fnx2uI6Z220pYHR9tcVY-35" value="&amp;nbsp; &amp;nbsp; Card&amp;nbsp;&lt;br&gt;&lt;ul&gt;&lt;li&gt;Value 1&lt;/li&gt;&lt;/ul&gt;" style="rounded=0;whiteSpace=wrap;html=1;fontSize=20;fontColor=#999999;strokeColor=#999999;align=left;" parent="fnx2uI6Z220pYHR9tcVY-1" vertex="1">
                    <mxGeometry x="320" y="280" width="240" height="160" as="geometry"/>
                </mxCell>
                <mxCell id="fnx2uI6Z220pYHR9tcVY-36" value="&amp;nbsp; &amp;nbsp; Card&amp;nbsp;&lt;br&gt;&lt;ul&gt;&lt;li&gt;Value 1&lt;/li&gt;&lt;/ul&gt;" style="rounded=0;whiteSpace=wrap;html=1;fontSize=20;fontColor=#808080;strokeColor=#999999;align=left;" parent="fnx2uI6Z220pYHR9tcVY-1" vertex="1">
                    <mxGeometry x="600" y="280" width="240" height="160" as="geometry"/>
                </mxCell>
                <mxCell id="fnx2uI6Z220pYHR9tcVY-37" value="&amp;nbsp; &amp;nbsp; Card&amp;nbsp;&lt;br&gt;&lt;ul&gt;&lt;li&gt;Value 1&lt;/li&gt;&lt;/ul&gt;" style="rounded=0;whiteSpace=wrap;html=1;fontSize=20;fontColor=#999999;strokeColor=#999999;align=left;" parent="fnx2uI6Z220pYHR9tcVY-1" vertex="1">
                    <mxGeometry x="40" y="480" width="240" height="160" as="geometry"/>
                </mxCell>
            </root>
        </mxGraphModel>
    </diagram>
    <diagram name="Salary" id="bm9f22YoEpCN7mWGMDZI">
        <mxGraphModel dx="650" dy="478" grid="1" gridSize="10" guides="1" tooltips="1" connect="1" arrows="1" fold="1" page="1" pageScale="1" pageWidth="850" pageHeight="1100" math="0" shadow="0">
            <root>
                <mxCell id="PNSDR7giTynGOgTjuXOy-0"/>
                <mxCell id="PNSDR7giTynGOgTjuXOy-1" parent="PNSDR7giTynGOgTjuXOy-0"/>
                <mxCell id="PNSDR7giTynGOgTjuXOy-2" value="&lt;font style=&quot;font-size: 36px&quot; color=&quot;#000000&quot;&gt;Logo&lt;/font&gt;" style="ellipse;whiteSpace=wrap;html=1;fontFamily=Helvetica;fontSize=12;shadow=0;" parent="PNSDR7giTynGOgTjuXOy-1" vertex="1">
                    <mxGeometry x="40" y="40" width="120" height="80" as="geometry"/>
                </mxCell>
                <mxCell id="PNSDR7giTynGOgTjuXOy-3" value="" style="strokeWidth=1;shadow=0;dashed=0;align=center;html=1;shape=mxgraph.mockup.rrect;rSize=10;fontFamily=Helvetica;fontSize=40;fontColor=#DBDBDB;strokeColor=#999999;" parent="PNSDR7giTynGOgTjuXOy-1" vertex="1">
                    <mxGeometry x="200" y="55" width="500" height="50" as="geometry"/>
                </mxCell>
                <mxCell id="PNSDR7giTynGOgTjuXOy-4" value="&lt;font style=&quot;font-weight: normal ; font-size: 17px&quot; color=&quot;#999999&quot;&gt;Phòng ban&lt;/font&gt;" style="strokeColor=inherit;fillColor=inherit;gradientColor=inherit;strokeWidth=1;shadow=0;dashed=0;align=center;html=1;shape=mxgraph.mockup.rrect;rSize=0;fontSize=17;fontColor=#666666;fontStyle=1;resizeHeight=1;fontFamily=Helvetica;" parent="PNSDR7giTynGOgTjuXOy-3" vertex="1">
                    <mxGeometry width="125" height="50" relative="1" as="geometry">
                        <mxPoint x="125" as="offset"/>
                    </mxGeometry>
                </mxCell>
                <mxCell id="PNSDR7giTynGOgTjuXOy-5" value="&lt;font style=&quot;font-size: 20px&quot; color=&quot;#000000&quot;&gt;Bản lương&lt;/font&gt;" style="strokeColor=inherit;fillColor=inherit;gradientColor=inherit;strokeWidth=1;shadow=0;dashed=0;align=center;html=1;shape=mxgraph.mockup.rrect;rSize=0;fontSize=17;fontColor=#666666;fontStyle=1;resizeHeight=1;fontFamily=Helvetica;" parent="PNSDR7giTynGOgTjuXOy-3" vertex="1">
                    <mxGeometry width="125" height="50" relative="1" as="geometry">
                        <mxPoint x="250" as="offset"/>
                    </mxGeometry>
                </mxCell>
                <mxCell id="PNSDR7giTynGOgTjuXOy-6" value="Liên hệ" style="strokeColor=inherit;fillColor=inherit;gradientColor=inherit;strokeWidth=1;shadow=0;dashed=0;align=center;html=1;shape=mxgraph.mockup.rightButton;rSize=10;fontSize=17;fontColor=#666666;fontStyle=1;resizeHeight=1;fontFamily=Helvetica;" parent="PNSDR7giTynGOgTjuXOy-3" vertex="1">
                    <mxGeometry x="1" width="125" height="50" relative="1" as="geometry">
                        <mxPoint x="-125" as="offset"/>
                    </mxGeometry>
                </mxCell>
                <mxCell id="PNSDR7giTynGOgTjuXOy-7" value="&lt;font style=&quot;font-weight: normal ; font-size: 18px&quot; color=&quot;#b3b3b3&quot;&gt;Nhân viên&lt;/font&gt;" style="strokeWidth=1;shadow=0;dashed=0;align=center;html=1;shape=mxgraph.mockup.leftButton;rSize=10;fontSize=17;fontColor=#ffffff;fontStyle=1;fillColor=none;strokeColor=none;resizeHeight=1;fontFamily=Helvetica;" parent="PNSDR7giTynGOgTjuXOy-3" vertex="1">
                    <mxGeometry width="125" height="50" relative="1" as="geometry"/>
                </mxCell>
                <mxCell id="PNSDR7giTynGOgTjuXOy-8" value="Home" style="strokeWidth=1;shadow=0;dashed=0;align=center;html=1;shape=mxgraph.mockup.navigation.anchor;fontSize=17;fontColor=#666666;fontStyle=1;fontFamily=Helvetica;fillColor=none;gradientColor=#ffffff;" parent="PNSDR7giTynGOgTjuXOy-1" vertex="1">
                    <mxGeometry x="40" y="140" width="60" height="30" as="geometry"/>
                </mxCell>
                <mxCell id="PNSDR7giTynGOgTjuXOy-9" style="edgeStyle=none;html=1;fontFamily=Helvetica;fontSize=20;fontColor=#FFFFFF;startArrow=none;" parent="PNSDR7giTynGOgTjuXOy-1" source="PNSDR7giTynGOgTjuXOy-11" edge="1">
                    <mxGeometry relative="1" as="geometry">
                        <mxPoint x="210" y="154.9999999999999" as="targetPoint"/>
                    </mxGeometry>
                </mxCell>
                <mxCell id="PNSDR7giTynGOgTjuXOy-10" value="&gt;" style="strokeWidth=1;shadow=0;dashed=0;align=center;html=1;shape=mxgraph.mockup.navigation.anchor;fontSize=24;fontColor=#aaaaaa;fontStyle=1;fontFamily=Helvetica;fillColor=none;gradientColor=#ffffff;" parent="PNSDR7giTynGOgTjuXOy-1" vertex="1">
                    <mxGeometry x="110" y="140" width="20" height="30" as="geometry"/>
                </mxCell>
                <mxCell id="PNSDR7giTynGOgTjuXOy-11" value="Bảng lương" style="strokeWidth=1;shadow=0;dashed=0;align=center;html=1;shape=mxgraph.mockup.navigation.anchor;fontSize=17;fontColor=#000000;fontStyle=1;fontFamily=Helvetica;fillColor=none;gradientColor=#ffffff;" parent="PNSDR7giTynGOgTjuXOy-1" vertex="1">
                    <mxGeometry x="170" y="140" width="60" height="30" as="geometry"/>
                </mxCell>
                <mxCell id="PNSDR7giTynGOgTjuXOy-13" value="" style="line;strokeWidth=1;html=1;shadow=0;fontFamily=Helvetica;fontSize=24;fontColor=#4D4D4D;fillColor=none;gradientColor=#ffffff;labelBackgroundColor=#FFFFFF;" parent="PNSDR7giTynGOgTjuXOy-1" vertex="1">
                    <mxGeometry x="40" y="240" width="800" height="10" as="geometry"/>
                </mxCell>
                <mxCell id="PNSDR7giTynGOgTjuXOy-14" value="Bảng lương" style="text;html=1;align=center;verticalAlign=middle;resizable=0;points=[];autosize=1;strokeColor=none;fillColor=none;fontSize=30;fontFamily=Helvetica;fontColor=#000000;fontStyle=1" parent="PNSDR7giTynGOgTjuXOy-1" vertex="1">
                    <mxGeometry x="60" y="190" width="190" height="40" as="geometry"/>
                </mxCell>
                <mxCell id="PNSDR7giTynGOgTjuXOy-15" value="&lt;font color=&quot;#000000&quot;&gt;&amp;nbsp; &amp;nbsp; Card&amp;nbsp;&lt;br&gt;&lt;/font&gt;&lt;ul&gt;&lt;li&gt;&lt;font color=&quot;#000000&quot;&gt;Value 1&lt;/font&gt;&lt;/li&gt;&lt;li&gt;&lt;font color=&quot;#000000&quot;&gt;Value 2&lt;/font&gt;&lt;/li&gt;&lt;/ul&gt;" style="rounded=0;whiteSpace=wrap;html=1;fontSize=20;fontColor=#FFFFFF;strokeColor=#999999;align=left;" parent="PNSDR7giTynGOgTjuXOy-1" vertex="1">
                    <mxGeometry x="40" y="400" width="240" height="160" as="geometry"/>
                </mxCell>
                <mxCell id="PNSDR7giTynGOgTjuXOy-21" value="&lt;font color=&quot;#000000&quot;&gt;&amp;nbsp; &amp;nbsp; Card&amp;nbsp;&lt;br&gt;&lt;/font&gt;&lt;ul&gt;&lt;li&gt;&lt;font color=&quot;#000000&quot;&gt;Value 1&lt;/font&gt;&lt;/li&gt;&lt;li&gt;&lt;font color=&quot;#000000&quot;&gt;Value 2&lt;/font&gt;&lt;/li&gt;&lt;/ul&gt;" style="rounded=0;whiteSpace=wrap;html=1;fontSize=20;fontColor=#FFFFFF;strokeColor=#999999;align=left;" parent="PNSDR7giTynGOgTjuXOy-1" vertex="1">
                    <mxGeometry x="40" y="600" width="240" height="160" as="geometry"/>
                </mxCell>
                <mxCell id="PNSDR7giTynGOgTjuXOy-22" value="&lt;font color=&quot;#000000&quot;&gt;&amp;nbsp; &amp;nbsp; Card&amp;nbsp;&lt;br&gt;&lt;/font&gt;&lt;ul&gt;&lt;li&gt;&lt;font color=&quot;#000000&quot;&gt;Value 1&lt;/font&gt;&lt;/li&gt;&lt;li&gt;&lt;font color=&quot;#000000&quot;&gt;Value 2&lt;/font&gt;&lt;/li&gt;&lt;/ul&gt;" style="rounded=0;whiteSpace=wrap;html=1;fontSize=20;fontColor=#FFFFFF;strokeColor=#999999;align=left;" parent="PNSDR7giTynGOgTjuXOy-1" vertex="1">
                    <mxGeometry x="320" y="400" width="240" height="160" as="geometry"/>
                </mxCell>
                <mxCell id="PNSDR7giTynGOgTjuXOy-23" value="&lt;font color=&quot;#000000&quot;&gt;&amp;nbsp; &amp;nbsp; Card&amp;nbsp;&lt;br&gt;&lt;/font&gt;&lt;ul&gt;&lt;li&gt;&lt;font color=&quot;#000000&quot;&gt;Value 1&lt;/font&gt;&lt;/li&gt;&lt;li&gt;&lt;font color=&quot;#000000&quot;&gt;Value 2&lt;/font&gt;&lt;/li&gt;&lt;/ul&gt;" style="rounded=0;whiteSpace=wrap;html=1;fontSize=20;fontColor=#FFFFFF;strokeColor=#999999;align=left;" parent="PNSDR7giTynGOgTjuXOy-1" vertex="1">
                    <mxGeometry x="600" y="400" width="240" height="160" as="geometry"/>
                </mxCell>
                <mxCell id="PNSDR7giTynGOgTjuXOy-24" value="&lt;font color=&quot;#000000&quot;&gt;Sắp xếp theo hệ số lương&lt;/font&gt;" style="html=1;shadow=0;dashed=0;shape=mxgraph.bootstrap.rrect;rSize=5;strokeColor=none;strokeWidth=1;fillColor=#DB2843;fontColor=#FFFFFF;whiteSpace=wrap;align=left;verticalAlign=middle;spacingLeft=0;fontStyle=1;fontSize=14;spacing=5;" parent="PNSDR7giTynGOgTjuXOy-1" vertex="1">
                    <mxGeometry x="80" y="280" width="190" height="50" as="geometry"/>
                </mxCell>
            </root>
        </mxGraphModel>
    </diagram>
    <diagram name="Contact" id="ppPWwyV7r4QQwZFB0JXg">
        <mxGraphModel dx="650" dy="478" grid="1" gridSize="10" guides="1" tooltips="1" connect="1" arrows="1" fold="1" page="1" pageScale="1" pageWidth="850" pageHeight="1100" math="0" shadow="0">
            <root>
                <mxCell id="MRwG52majwAIO9b40jHt-0"/>
                <mxCell id="MRwG52majwAIO9b40jHt-1" parent="MRwG52majwAIO9b40jHt-0"/>
                <mxCell id="MRwG52majwAIO9b40jHt-2" value="&lt;font style=&quot;font-size: 36px&quot;&gt;Logo&lt;/font&gt;" style="ellipse;whiteSpace=wrap;html=1;fontFamily=Helvetica;fontSize=12;shadow=0;fontColor=#000000;" parent="MRwG52majwAIO9b40jHt-1" vertex="1">
                    <mxGeometry x="40" y="40" width="120" height="80" as="geometry"/>
                </mxCell>
                <mxCell id="MRwG52majwAIO9b40jHt-3" value="" style="strokeWidth=1;shadow=0;dashed=0;align=center;html=1;shape=mxgraph.mockup.rrect;rSize=10;fontFamily=Helvetica;fontSize=40;fontColor=#DBDBDB;strokeColor=#999999;" parent="MRwG52majwAIO9b40jHt-1" vertex="1">
                    <mxGeometry x="200" y="55" width="500" height="50" as="geometry"/>
                </mxCell>
                <mxCell id="MRwG52majwAIO9b40jHt-4" value="&lt;font style=&quot;font-weight: normal ; font-size: 17px&quot; color=&quot;#999999&quot;&gt;Phòng ban&lt;/font&gt;" style="strokeColor=inherit;fillColor=inherit;gradientColor=inherit;strokeWidth=1;shadow=0;dashed=0;align=center;html=1;shape=mxgraph.mockup.rrect;rSize=0;fontSize=17;fontColor=#666666;fontStyle=1;resizeHeight=1;fontFamily=Helvetica;" parent="MRwG52majwAIO9b40jHt-3" vertex="1">
                    <mxGeometry width="125" height="50" relative="1" as="geometry">
                        <mxPoint x="125" as="offset"/>
                    </mxGeometry>
                </mxCell>
                <mxCell id="MRwG52majwAIO9b40jHt-5" value="&lt;font style=&quot;font-weight: normal ; font-size: 17px&quot; color=&quot;#808080&quot;&gt;Bản lương&lt;/font&gt;" style="strokeColor=inherit;fillColor=inherit;gradientColor=inherit;strokeWidth=1;shadow=0;dashed=0;align=center;html=1;shape=mxgraph.mockup.rrect;rSize=0;fontSize=17;fontColor=#666666;fontStyle=1;resizeHeight=1;fontFamily=Helvetica;" parent="MRwG52majwAIO9b40jHt-3" vertex="1">
                    <mxGeometry width="125" height="50" relative="1" as="geometry">
                        <mxPoint x="250" as="offset"/>
                    </mxGeometry>
                </mxCell>
                <mxCell id="MRwG52majwAIO9b40jHt-6" value="&lt;font style=&quot;font-size: 20px&quot; color=&quot;#000000&quot;&gt;Liên hệ&lt;/font&gt;" style="strokeColor=inherit;fillColor=inherit;gradientColor=inherit;strokeWidth=1;shadow=0;dashed=0;align=center;html=1;shape=mxgraph.mockup.rightButton;rSize=10;fontSize=17;fontColor=#666666;fontStyle=1;resizeHeight=1;fontFamily=Helvetica;" parent="MRwG52majwAIO9b40jHt-3" vertex="1">
                    <mxGeometry x="1" width="125" height="50" relative="1" as="geometry">
                        <mxPoint x="-125" as="offset"/>
                    </mxGeometry>
                </mxCell>
                <mxCell id="MRwG52majwAIO9b40jHt-7" value="&lt;font style=&quot;font-weight: normal ; font-size: 18px&quot; color=&quot;#b3b3b3&quot;&gt;Nhân viên&lt;/font&gt;" style="strokeWidth=1;shadow=0;dashed=0;align=center;html=1;shape=mxgraph.mockup.leftButton;rSize=10;fontSize=17;fontColor=#ffffff;fontStyle=1;fillColor=none;strokeColor=none;resizeHeight=1;fontFamily=Helvetica;" parent="MRwG52majwAIO9b40jHt-3" vertex="1">
                    <mxGeometry width="125" height="50" relative="1" as="geometry"/>
                </mxCell>
                <mxCell id="izpD0hC7al5JgNjLPyaH-0" value="&lt;font color=&quot;#666666&quot;&gt;facebook&lt;/font&gt;" style="html=1;shadow=0;dashed=0;shape=mxgraph.bootstrap.rrect;rSize=5;strokeColor=none;strokeWidth=1;fillColor=#0085FC;fontColor=#000000;whiteSpace=wrap;align=center;verticalAlign=middle;spacingLeft=0;fontStyle=1;fontSize=14;spacing=5;" parent="MRwG52majwAIO9b40jHt-1" vertex="1">
                    <mxGeometry x="80" y="410" width="80" height="30" as="geometry"/>
                </mxCell>
                <mxCell id="izpD0hC7al5JgNjLPyaH-1" value="Gmail" style="html=1;shadow=0;dashed=0;shape=mxgraph.bootstrap.rrect;rSize=5;strokeColor=none;strokeWidth=1;fillColor=#0085FC;fontColor=#666666;whiteSpace=wrap;align=center;verticalAlign=middle;spacingLeft=0;fontStyle=1;fontSize=14;spacing=5;" parent="MRwG52majwAIO9b40jHt-1" vertex="1">
                    <mxGeometry x="160" y="410" width="70" height="30" as="geometry"/>
                </mxCell>
                <mxCell id="izpD0hC7al5JgNjLPyaH-2" value="Skype" style="html=1;shadow=0;dashed=0;shape=mxgraph.bootstrap.rrect;rSize=5;strokeColor=none;strokeWidth=1;fillColor=#0085FC;fontColor=#808080;whiteSpace=wrap;align=center;verticalAlign=middle;spacingLeft=0;fontStyle=1;fontSize=14;spacing=5;" parent="MRwG52majwAIO9b40jHt-1" vertex="1">
                    <mxGeometry x="230" y="410" width="70" height="30" as="geometry"/>
                </mxCell>
                <mxCell id="izpD0hC7al5JgNjLPyaH-3" value="&lt;b&gt;&lt;font style=&quot;font-size: 25px&quot; color=&quot;#000000&quot;&gt;Location Information&lt;/font&gt;&lt;/b&gt;" style="text;html=1;align=center;verticalAlign=middle;resizable=0;points=[];autosize=1;strokeColor=none;fillColor=none;fontSize=20;fontColor=#FFFFFF;" parent="MRwG52majwAIO9b40jHt-1" vertex="1">
                    <mxGeometry x="55" y="165" width="260" height="30" as="geometry"/>
                </mxCell>
                <mxCell id="izpD0hC7al5JgNjLPyaH-6" value="Our address&lt;br&gt;&lt;ul&gt;&lt;li&gt;value 1&lt;/li&gt;&lt;li&gt;value 2&lt;/li&gt;&lt;li&gt;value 3&lt;/li&gt;&lt;/ul&gt;" style="rounded=0;whiteSpace=wrap;html=1;fontSize=25;fontColor=#000000;strokeColor=#999999;align=left;" parent="MRwG52majwAIO9b40jHt-1" vertex="1">
                    <mxGeometry x="80" y="210" width="200" height="190" as="geometry"/>
                </mxCell>
                <mxCell id="izpD0hC7al5JgNjLPyaH-7" value="" style="html=1;shadow=0;dashed=0;shape=mxgraph.bootstrap.rrect;rSize=5;strokeColor=#DFDFDF;html=1;whiteSpace=wrap;fillColor=#ffffff;fontColor=#000000;verticalAlign=bottom;align=left;spacing=20;fontSize=14;" parent="MRwG52majwAIO9b40jHt-1" vertex="1">
                    <mxGeometry x="360" y="200" width="320" height="200" as="geometry"/>
                </mxCell>
                <mxCell id="izpD0hC7al5JgNjLPyaH-8" value="Image map of your address" style="html=1;shadow=0;dashed=0;shape=mxgraph.bootstrap.topButton;rSize=5;perimeter=none;whiteSpace=wrap;fillColor=#868E96;strokeColor=#DFDFDF;fontColor=#DEE2E6;resizeWidth=1;fontSize=18;" parent="izpD0hC7al5JgNjLPyaH-7" vertex="1">
                    <mxGeometry width="320" height="200" relative="1" as="geometry"/>
                </mxCell>
            </root>
        </mxGraphModel>
    </diagram>
</mxfile>